<svg width="48" height="48" viewBox="0 0 48 48" fill="none" xmlns="http://www.w3.org/2000/svg">
<path d="M12.5 18C12.5 16.6193 13.6193 15.5 15 15.5H19C20.3807 15.5 21.5 16.6193 21.5 18V24.5H12.5V18Z" stroke="#FF498B" stroke-width="3"/>
<path d="M26.5 18C26.5 16.6193 27.6193 15.5 29 15.5H33C34.3807 15.5 35.5 16.6193 35.5 18V24.5H26.5V18Z" stroke="#FF498B" stroke-width="3"/>
<path d="M8.5 11C8.5 6.30558 12.3056 2.5 17 2.5H31C35.6944 2.5 39.5 6.30558 39.5 11V23.5H8.5V11Z" stroke="#152C5B" stroke-width="3"/>
<mask id="path-4-inside-1" fill="white">
<path d="M0 27C0 24.7909 1.79086 23 4 23H44C46.2091 23 48 24.7909 48 27V37C48 38.1046 47.1046 39 46 39H2C0.895431 39 0 38.1046 0 37V27Z"/>
</mask>
<path d="M0 27C0 24.7909 1.79086 23 4 23H44C46.2091 23 48 24.7909 48 27V37C48 38.1046 47.1046 39 46 39H2C0.895431 39 0 38.1046 0 37V27Z" stroke="#152C5B" stroke-width="6" mask="url(#path-4-inside-1)"/>
<path d="M5 38L5 46" stroke="#152C5B" stroke-width="3" stroke-linecap="round"/>
<path d="M43 38V46" stroke="#152C5B" stroke-width="3" stroke-linecap="round"/>
<path d="M5 42H43" stroke="#152C5B" stroke-width="3" stroke-linecap="round"/>
</svg>
