<svg width="48" height="48" viewBox="0 0 48 48" fill="none" xmlns="http://www.w3.org/2000/svg">
<path d="M4.84291 20.9497C5.25214 20.0658 6.13751 19.5 7.11158 19.5H40.8884C41.8625 19.5 42.7479 20.0658 43.1571 20.9497L45.0089 24.9497C45.776 26.6065 44.566 28.5 42.7403 28.5H5.25973C3.43398 28.5 2.22402 26.6065 2.99106 24.9497L4.84291 20.9497Z" stroke="#152C5B" stroke-width="3"/>
<mask id="path-2-inside-1" fill="white">
<path d="M9 45C6.79086 45 5 43.2091 5 41L5 28C5 27.4477 5.44771 27 6 27L12 27C12.5523 27 13 27.4477 13 28L13 41C13 43.2091 11.2091 45 9 45Z"/>
</mask>
<path d="M9 45C6.79086 45 5 43.2091 5 41L5 28C5 27.4477 5.44771 27 6 27L12 27C12.5523 27 13 27.4477 13 28L13 41C13 43.2091 11.2091 45 9 45Z" stroke="#152C5B" stroke-width="6" mask="url(#path-2-inside-1)"/>
<mask id="path-3-inside-2" fill="white">
<path d="M39 45C36.7909 45 35 43.2091 35 41L35 28C35 27.4477 35.4477 27 36 27L42 27C42.5523 27 43 27.4477 43 28L43 41C43 43.2091 41.2091 45 39 45Z"/>
</mask>
<path d="M39 45C36.7909 45 35 43.2091 35 41L35 28C35 27.4477 35.4477 27 36 27L42 27C42.5523 27 43 27.4477 43 28L43 41C43 43.2091 41.2091 45 39 45Z" stroke="#152C5B" stroke-width="6" mask="url(#path-3-inside-2)"/>
<path d="M17 13V19" stroke="#152C5B" stroke-width="3" stroke-linecap="round"/>
<mask id="path-5-inside-3" fill="white">
<path d="M17 13C14.7909 13 13 11.2091 13 9L13 4C13 3.44772 13.4477 3 14 3L20 3C20.5523 3 21 3.44771 21 4L21 9C21 11.2091 19.2091 13 17 13Z"/>
</mask>
<path d="M17 13C14.7909 13 13 11.2091 13 9L13 4C13 3.44772 13.4477 3 14 3L20 3C20.5523 3 21 3.44771 21 4L21 9C21 11.2091 19.2091 13 17 13Z" stroke="#FF498B" stroke-width="6" mask="url(#path-5-inside-3)"/>
<path d="M31 13V19" stroke="#152C5B" stroke-width="3" stroke-linecap="round"/>
<mask id="path-7-inside-4" fill="white">
<path d="M31 13C28.7909 13 27 11.2091 27 9L27 4C27 3.44772 27.4477 3 28 3L34 3C34.5523 3 35 3.44771 35 4L35 9C35 11.2091 33.2091 13 31 13Z"/>
</mask>
<path d="M31 13C28.7909 13 27 11.2091 27 9L27 4C27 3.44772 27.4477 3 28 3L34 3C34.5523 3 35 3.44771 35 4L35 9C35 11.2091 33.2091 13 31 13Z" stroke="#FF498B" stroke-width="6" mask="url(#path-7-inside-4)"/>
</svg>
