<svg width="48" height="48" viewBox="0 0 48 48" fill="none" xmlns="http://www.w3.org/2000/svg">
<path d="M30.5 40C30.5 41.3349 29.3789 42.9472 26.6429 44.3152C23.9966 45.6383 20.2359 46.5 16 46.5C11.7641 46.5 8.00336 45.6383 5.35711 44.3152C2.62114 42.9472 1.5 41.3349 1.5 40C1.5 38.6651 2.62114 37.0528 5.35711 35.6848C8.00336 34.3617 11.7641 33.5 16 33.5C20.2359 33.5 23.9966 34.3617 26.6429 35.6848C29.3789 37.0528 30.5 38.6651 30.5 40Z" stroke="#152C5B" stroke-width="3"/>
<path d="M28.5 13.9259C28.5 17.5012 27.0056 24.0605 24.5246 29.7473C23.2896 32.5781 21.853 35.091 20.3147 36.8702C18.7478 38.6826 17.2849 39.5 16 39.5C14.7151 39.5 13.2522 38.6826 11.6853 36.8702C10.147 35.091 8.71036 32.5781 7.47536 29.7473C4.99436 24.0605 3.5 17.5012 3.5 13.9259C3.5 7.07077 9.08893 1.5 16 1.5C22.9111 1.5 28.5 7.07077 28.5 13.9259Z" fill="white" stroke="#152C5B" stroke-width="3"/>
<circle cx="16" cy="14" r="4.5" stroke="#FF498B" stroke-width="3"/>
</svg>
